<svg
    width="20"
    height="20"
    viewBox="0 0 20 20"
    fill="none"
    xmlns="http://www.w3.org/2000/svg"
    >
    <path
        d="M10 19.75C11.1 19.75 12 18.85 12 17.75H8.00003C8.00003 18.85 8.90003 19.75 10 19.75ZM16 13.75V8.75C16 5.68 14.37 3.11 11.5 2.43V1.75C11.5 0.92 10.83 0.25 10 0.25C9.17003 0.25 8.50003 0.92 8.50003 1.75V2.43C5.64003 3.11 4.00003 5.67 4.00003 8.75V13.75L2.00003 15.75V16.75H18V15.75L16 13.75ZM14 14.75H6.00003V8.75C6.00003 6.27 7.51003 4.25 10 4.25C12.49 4.25 14 6.27 14 8.75V14.75ZM5.58003 1.83L4.15003 0.4C1.75003 2.23 0.170029 5.05 0.0300293 8.25H2.03003C2.18003 5.6 3.54003 3.28 5.58003 1.83ZM17.97 8.25H19.97C19.82 5.05 18.24 2.23 15.85 0.4L14.43 1.83C16.45 3.28 17.82 5.6 17.97 8.25Z"
        fill="#1C1C1C"
    />
</svg>